<svg
  xmlns="http://www.w3.org/2000/svg"
  width="44"
  height="44"
  viewBox="0 0 44 44"
  fill="none"
  stroke="#2c3e50"
  stroke-width="1.7"
  stroke-linecap="round"
  stroke-linejoin="round"
>
  <g>
    <circle cx="21.9" cy="8.3" r="5" />
    <path
      d="M39.5,22.1l-4.7-1c-1.6-0.3-3.2,0.4-4,1.7c-0.8-0.4-1.7-0.8-2.6-1.1V19c0-2.1-1.7-3.8-3.8-3.8h-4.8
		c-2.1,0-3.8,1.7-3.8,3.8v2.8c-0.9,0.3-1.8,0.7-2.6,1.1c-0.8-1.3-2.4-2-4-1.7l-4.7,1c-2.1,0.4-3.4,2.5-3,4.5l1.2,5.6
		c0.4,2.1,2.5,3.4,4.5,3L8.7,35c0.7,1.1,1.8,2.1,3.1,3c2.7,1.8,6.4,2.8,10.2,2.8c5.9,0,11-2.4,13.3-5.8l1.5,0.3
		c2.1,0.4,4.1-0.9,4.5-3l1.2-5.6C42.9,24.6,41.6,22.6,39.5,22.1z M22,38.8c-3.5,0-6.7-0.9-9.2-2.5c-0.8-0.5-1.5-1.1-2.1-1.8l1.1-0.2
		c2.1-0.4,3.4-2.5,3-4.5l-1.1-5.1c0.6-0.3,1.3-0.6,2-0.9v0.9c0,2.1,1.7,3.8,3.8,3.8h4.8c2.1,0,3.8-1.7,3.8-3.8v-1
		c0.7,0.3,1.4,0.5,2,0.9l-1.1,5.1c-0.4,2.1,0.9,4.1,3,4.5l1.1,0.2C31.1,37.1,26.9,38.8,22,38.8z"
    />
    <circle cx="38.5" cy="14.9" r="5" />
    <path
      d="M6.5,19.8c2.7-0.6,4.5-3.2,3.9-6c-0.6-2.7-3.2-4.5-6-3.9c-2.7,0.6-4.5,3.2-3.9,6C1.1,18.7,3.8,20.4,6.5,19.8z"
    />
  </g>
</svg>