<svg xmlns="http://www.w3.org/2000/svg" viewBox="0 0 494.84 843.98"><defs><style>.cls-1{fill:#4e4e4e;}.cls-2{fill:#20b4af;}</style></defs><title>Fichier 2</title><g id="Calque_2" data-name="Calque 2"><g id="Object"><path class="cls-1" d="M228.27,844H86.73C38.83,844,0,843.71,0,843.39V804.8c0-.58,70.52-1.06,157.5-1.06h0c87,0,157.5.48,157.5,1.06v38.59C315,843.71,276.17,844,228.27,844Z"/><path class="cls-1" d="M73.14,823.86H53.73A11.89,11.89,0,0,1,41.84,812V21.6A21.6,21.6,0,0,1,63.43,0h0A21.6,21.6,0,0,1,85,21.6V812A11.89,11.89,0,0,1,73.14,823.86Z"/><path class="cls-2" d="M68.43,376.13a13.8,13.8,0,0,0,13.81,13.8H424.69a36.62,36.62,0,0,0,25.56-10.34l35.69-34.82a24.63,24.63,0,0,0,0-35.32l-35.69-34.83a36.62,36.62,0,0,0-25.56-10.33H82.24a13.8,13.8,0,0,0-13.81,13.8Z"/><path class="cls-2" d="M68.87,207.37a13.8,13.8,0,0,0,13.8,13.8H425.13a36.62,36.62,0,0,0,25.56-10.33L486.37,176a24.6,24.6,0,0,0,0-35.31l-35.68-34.83a36.62,36.62,0,0,0-25.56-10.34H82.67a13.8,13.8,0,0,0-13.8,13.8Z"/><path class="cls-2" d="M69.87,542.37a13.8,13.8,0,0,0,13.8,13.8H426.13a36.62,36.62,0,0,0,25.56-10.33L487.37,511a24.6,24.6,0,0,0,0-35.31l-35.68-34.83a36.62,36.62,0,0,0-25.56-10.34H83.67a13.8,13.8,0,0,0-13.8,13.8Z"/></g></g></svg>