<?xml version="1.0" encoding="utf-8"?>
<!-- Generator: Adobe Illustrator 24.0.2, SVG Export Plug-In . SVG Version: 6.00 Build 0)  -->
<svg version="1.1" id="Calque_1" xmlns="http://www.w3.org/2000/svg" xmlns:xlink="http://www.w3.org/1999/xlink" x="0px" y="0px"
	 viewBox="0 0 432 512" style="enable-background:new 0 0 432 512;" xml:space="preserve">
<path d="M407,111.9l-98.5-9l14-33.4c10.4-23.5-10.8-40.4-28.7-37L22.5,76.9c-15.1,2.7-26,18.3-21.4,36.6l105.1,348.3
	c6.5,21.3,36.7,24.2,47.7,7l35.3-80.8l235.2-231.3C440.8,139.9,428.7,113.8,407,111.9z M297.6,53.6c5.1-0.7,7.5,2.5,5.2,7.4
	L286,100.9L108.6,84.6L297.6,53.6z M22.7,107.9c-3.1-5.1,1-10,6.1-9.1l248.7,22.7l-96.9,230.7L22.7,107.9z M136,456.4
	c-2.6,4-7.9,3.1-9.4-1.2L43.5,179.7l127.7,197.6C164.2,392.3,136,456.4,136,456.4z M408.8,141.9L210.1,337.3l89.7-213.7l106.4,9.7
	C410.2,134.4,411.9,138.6,408.8,141.9z"/>
</svg>
